# xmcd CD database file
#
# Track frame offsets:
#	150
#	19080
#	37010
#	59650
#	78142
#	96417
#	112125
#	129912
#	149917
#	161690
#	179592
#
# Disc length: 2620 seconds
#
# Revision: 2
# Processed by: cddbd v1.4b41PL1 Copyright (c) Steve Scherf et al.
# Submitted via: Feurio! 1.52 - http://www.feurio.com
#
DISCID=a20a3a0b
DTITLE=Eric Heatherly - Swimming in Champagne
DYEAR=1900
DGENRE=
TTITLE0=Someone Else's Cadillac
TTITLE1=I Just Break'em
TTITLE2=Didn't Mean A Thing
TTITLE3=One Night
TTITLE4=Why Don't Cha
TTITLE5=Flowers On The Wall
TTITLE6=Let Me
TTITLE7=Swimming In Champagne
TTITLE8=Wrong Five O'clock
TTITLE9=Freedom Chain
TTITLE10=She's So Hot
EXTD=
EXTT0=
EXTT1=
EXTT2=
EXTT3=
EXTT4=
EXTT5=
EXTT6=
EXTT7=
EXTT8=
EXTT9=
EXTT10=
PLAYORDER=
